<?xml version="1.0" standalone="no"?>
<!DOCTYPE svg PUBLIC "-//W3C//DTD SVG 20010904//EN"
 "http://www.w3.org/TR/2001/REC-SVG-20010904/DTD/svg10.dtd">
<svg version="1.0" xmlns="http://www.w3.org/2000/svg"
 width="800.000000pt" height="600.000000pt" viewBox="0 0 800.000000 600.000000"
 preserveAspectRatio="xMidYMid meet">

<g transform="translate(0.000000,600.000000) scale(0.100000,-0.100000)"
fill="#000000" stroke="none">
<path d="M4583 5973 c-37 -5 -53 -21 -62 -66 l-7 -32 -140 -5 c-111 -4 -146
-9 -167 -23 -28 -18 -36 -57 -18 -86 5 -8 63 -22 147 -36 77 -13 147 -27 157
-30 13 -5 17 -19 17 -55 0 -26 3 -81 6 -123 l7 -77 -59 0 c-32 0 -104 7 -159
15 -125 18 -209 19 -222 3 -19 -24 -22 -85 -7 -107 12 -17 26 -21 67 -21 29 0
107 -11 175 -25 68 -14 143 -25 167 -25 l43 0 0 -88 c-1 -122 22 -155 121
-168 54 -7 58 3 53 120 l-5 104 84 -24 c71 -21 108 -25 232 -27 138 -2 149 -1
163 18 8 11 14 35 12 54 -3 33 -6 36 -63 53 -33 10 -109 27 -170 38 -138 25
-215 40 -237 46 -16 5 -18 20 -18 130 0 68 1 124 3 124 8 0 247 -69 292 -84
82 -28 115 -5 115 82 -1 66 -26 81 -194 117 -61 13 -129 30 -151 38 l-40 14
-3 64 c-4 88 -19 97 -139 82z"/>
<path d="M6415 5581 c-33 -3 -66 -10 -72 -14 -17 -11 -16 -67 2 -174 8 -49 17
-140 19 -203 3 -63 5 -121 5 -127 1 -24 37 -13 101 32 34 24 68 46 74 48 6 2
10 26 9 53 0 27 -1 117 -2 200 -1 103 -5 155 -13 167 -17 21 -49 26 -123 18z"/>
<path d="M5518 5530 c-22 -14 -50 -100 -46 -147 3 -38 4 -38 53 -44 28 -3 88
-18 135 -32 47 -14 110 -33 140 -42 73 -22 260 -65 281 -65 25 0 36 20 43 82
l7 57 -40 20 c-22 12 -47 21 -55 21 -32 0 -214 59 -286 93 -57 27 -194 70
-213 67 -1 0 -10 -5 -19 -10z"/>
<path d="M6755 5510 c-12 -14 -15 -52 -15 -217 0 -232 1 -235 73 -214 95 28
91 21 104 171 7 74 15 157 18 185 7 79 -9 95 -95 93 -51 -1 -74 -5 -85 -18z"/>
<path d="M7258 5117 c-18 -19 -58 -61 -89 -93 -95 -100 -284 -248 -379 -296
-19 -10 -48 -27 -65 -38 -16 -11 -61 -36 -100 -55 -67 -33 -75 -34 -193 -37
-68 -2 -126 -6 -129 -11 -7 -12 17 -120 33 -144 12 -20 20 -22 66 -17 157 15
300 56 453 129 61 29 121 56 135 60 64 20 205 141 267 230 38 55 113 212 113
237 0 27 -37 68 -62 68 -9 0 -32 -15 -50 -33z"/>
<path d="M7555 4960 c-4 -6 -11 -40 -16 -73 -5 -34 -12 -82 -15 -106 -8 -50
-2 -56 65 -66 25 -3 116 -19 201 -35 85 -15 167 -30 183 -33 l27 -4 0 143 0
143 -32 5 c-63 11 -223 27 -314 33 -67 4 -93 2 -99 -7z"/>
<path d="M4590 4830 l-305 -5 -90 -33 c-239 -89 -354 -145 -537 -266 -144 -93
-191 -135 -266 -239 -108 -148 -209 -379 -291 -662 -83 -288 -86 -311 -86
-670 l0 -320 37 -178 c21 -99 40 -182 43 -186 2 -5 12 -62 20 -127 28 -203 33
-227 58 -290 13 -33 30 -91 37 -130 7 -38 18 -80 25 -94 20 -38 55 -119 55
-126 0 -3 21 -54 46 -112 61 -139 139 -276 184 -321 19 -20 53 -58 75 -85 82
-101 352 -370 410 -408 32 -21 84 -46 115 -54 106 -30 108 -31 115 -86 12 -82
26 -89 198 -103 l77 -7 0 -37 c0 -20 -9 -62 -20 -94 -25 -71 -28 -197 -5 -197
12 0 15 15 15 73 0 39 7 99 15 132 8 33 14 74 15 91 l0 32 121 3 c147 5 154
10 144 104 l-7 60 189 94 c238 118 344 180 513 300 246 176 315 253 575 647
197 297 248 383 340 571 112 229 139 338 165 683 33 433 23 625 -45 828 -37
110 -48 131 -155 317 -115 199 -246 375 -351 469 -83 76 -398 266 -521 316
-124 49 -341 92 -578 113 -14 1 -162 0 -330 -3z m390 -20 c174 -18 195 -21
235 -31 22 -6 68 -17 103 -25 160 -36 185 -48 569 -282 134 -81 358 -341 445
-517 19 -38 56 -103 82 -142 132 -205 173 -503 136 -983 -31 -392 -41 -435
-151 -680 -68 -151 -174 -339 -258 -455 -16 -22 -91 -134 -167 -250 -123 -187
-151 -223 -259 -330 -158 -157 -369 -305 -613 -431 -46 -24 -95 -52 -110 -62
-38 -26 -136 -68 -244 -104 -89 -30 -100 -31 -248 -31 -145 0 -164 2 -292 36
-113 29 -148 43 -196 76 -51 36 -310 307 -402 421 -19 24 -50 60 -69 79 -49
52 -143 204 -179 291 -52 128 -141 378 -147 417 -4 21 -12 56 -20 78 -20 58
-63 251 -70 315 -5 52 -26 162 -45 240 -54 219 -55 224 -55 495 1 300 16 416
84 640 129 422 248 663 403 811 49 47 162 131 198 148 8 3 44 24 80 46 128 79
404 201 510 225 68 16 542 19 680 5z m-206 -4374 c4 -18 2 -46 -4 -61 l-11
-28 -230 5 c-203 5 -232 8 -250 24 -24 21 -24 91 0 86 7 -1 61 -7 120 -13 117
-12 242 -6 311 15 25 8 48 12 51 10 4 -2 10 -19 13 -38z"/>
<path d="M3520 3456 c-19 -7 -69 -29 -110 -48 -41 -19 -97 -43 -125 -53 -56
-21 -135 -71 -135 -86 0 -21 38 -22 145 -1 61 12 134 22 161 22 48 0 52 -2 80
-42 91 -130 196 -290 192 -294 -7 -7 -144 62 -213 106 -33 22 -73 47 -88 55
-30 17 -63 13 -52 -5 16 -25 183 -125 310 -186 76 -35 135 -67 132 -70 -5 -6
-120 27 -292 82 -111 36 -223 90 -261 125 -41 38 -70 12 -32 -29 14 -15 40
-49 59 -77 18 -27 65 -90 104 -140 101 -129 106 -137 89 -159 -18 -25 -9 -37
24 -34 20 2 29 -3 40 -24 14 -29 26 -35 37 -18 3 6 41 10 83 11 42 0 113 8
157 17 68 14 80 20 80 37 0 16 -8 21 -38 23 -32 3 -35 5 -23 18 8 7 24 26 35
40 l21 27 22 -29 c58 -77 174 -164 198 -149 20 12 9 35 -29 66 -57 46 -59 57
-5 45 42 -10 46 -14 66 -66 32 -84 27 -291 -11 -418 -16 -54 -43 -264 -37
-287 8 -30 78 -75 116 -75 39 0 110 36 110 55 0 19 -23 19 -62 -1 l-31 -16 6
49 c7 50 -3 80 -22 69 -6 -4 -13 -29 -17 -56 -4 -28 -11 -50 -16 -50 -5 0 -7
8 -4 18 2 9 8 52 12 95 7 83 -3 99 -31 50 -11 -19 -14 -22 -11 -8 5 25 44 240
57 316 5 30 9 77 9 103 0 58 -28 184 -46 211 -22 32 -16 71 21 139 24 44 35
76 34 103 -1 54 -13 88 -29 88 -12 0 -14 -13 -12 -60 2 -41 -1 -66 -11 -79
-14 -19 -15 -19 -21 2 -5 14 -41 42 -94 73 -143 85 -209 137 -252 204 -22 34
-40 65 -40 69 0 4 -14 28 -32 54 -18 26 -43 68 -55 93 -44 88 -99 120 -163 95z
m20 -581 c4 -2 10 -25 13 -50 10 -70 32 -111 78 -144 l42 -31 -36 0 c-35 0
-40 4 -84 73 -25 39 -59 91 -75 114 -15 23 -28 44 -28 48 0 7 76 -1 90 -10z
m110 -26 c0 -20 -21 -49 -35 -49 -8 0 -15 3 -15 8 0 4 -3 17 -6 30 -6 19 -3
22 25 22 17 0 31 -5 31 -11z m103 -67 c43 -5 47 -13 13 -31 -20 -11 -28 -10
-49 4 -31 20 -46 51 -20 39 10 -4 35 -9 56 -12z m96 -27 c-52 -88 -141 -98
-218 -24 -22 21 -23 23 -6 29 13 5 27 -2 46 -21 15 -16 40 -31 54 -35 36 -9
89 17 111 55 10 17 22 31 26 31 4 0 -2 -16 -13 -35z"/>
<path d="M4448 3233 c-23 -26 -90 -202 -86 -227 5 -34 31 -25 39 13 4 18 11
43 17 55 5 11 24 51 41 88 29 62 33 88 12 88 -4 0 -15 -8 -23 -17z"/>
<path d="M5272 3193 c-22 -16 -58 -44 -79 -63 -68 -62 -122 -101 -181 -130
-84 -41 -441 -160 -500 -167 -29 -3 -53 -12 -56 -19 -9 -23 23 -97 56 -131 37
-38 121 -73 176 -73 28 0 33 -3 22 -10 -8 -5 -34 -10 -57 -10 -44 0 -65 -16
-42 -32 8 -5 37 -7 65 -5 40 3 61 11 100 41 27 21 63 44 79 52 17 8 46 24 65
35 27 15 55 19 125 19 129 0 664 66 683 84 13 13 -9 36 -30 32 -93 -21 -560
-76 -640 -76 l-61 0 66 50 c37 28 110 78 162 110 195 123 197 124 297 76 96
-46 189 -76 233 -76 29 0 39 6 55 33 27 43 26 46 -17 63 -21 8 -56 24 -78 35
-304 157 -368 189 -384 189 -10 0 -36 -12 -59 -27z"/>
<path d="M4423 2998 c-15 -24 -55 -133 -60 -165 -4 -24 2 -45 23 -80 16 -27
33 -57 39 -68 6 -11 19 -21 29 -23 16 -3 18 0 12 25 -4 15 -21 49 -37 74 -16
25 -29 53 -29 63 0 9 14 49 30 88 17 38 30 76 30 84 0 17 -26 18 -37 2z"/>
<path d="M3284 2895 c-10 -26 86 -234 124 -268 40 -36 34 4 -16 106 -27 56
-57 119 -66 140 -16 39 -33 47 -42 22z"/>
<path d="M5675 2710 c-22 -5 -157 -11 -300 -15 -143 -3 -305 -11 -360 -16
l-100 -9 -40 -45 c-22 -24 -67 -59 -100 -78 -87 -48 -81 -62 28 -62 87 -1 89
-1 117 31 16 18 32 39 37 47 5 9 35 16 90 20 80 6 83 6 99 -18 23 -34 72 -63
132 -75 44 -10 57 -9 96 9 26 11 46 24 46 28 0 4 14 24 30 43 16 19 30 38 30
42 0 10 92 -2 104 -13 14 -13 -40 -66 -104 -102 -65 -37 -66 -38 -150 -39 -52
-1 -86 6 -170 36 -150 53 -150 53 -150 23 0 -19 11 -33 43 -55 66 -44 134 -82
149 -82 8 0 31 -9 53 -20 44 -22 66 -25 81 -10 8 8 19 7 39 0 33 -13 55 1 48
30 -4 15 2 21 23 26 40 10 158 79 223 131 29 24 91 64 137 90 89 51 102 73 49
84 -41 9 -132 8 -180 -1z m-245 -96 c0 -3 -6 -12 -14 -19 -10 -10 -16 -11 -25
-2 -18 18 -13 27 14 27 14 0 25 -3 25 -6z m-137 -15 c-8 -8 -16 -8 -30 0 -16
9 -14 10 12 11 21 0 26 -3 18 -11z m-98 -10 c11 -16 1 -19 -13 -3 -7 8 -8 14
-3 14 5 0 13 -5 16 -11z m125 -53 c0 -11 -8 -12 -36 -6 -51 12 -54 20 -6 20
29 0 42 -4 42 -14z"/>
<path d="M4448 2583 c-46 -49 -68 -93 -68 -138 0 -46 26 -48 35 -2 11 48 32
83 70 119 19 17 35 37 35 45 0 25 -36 13 -72 -24z"/>
<path d="M5758 2572 c-12 -16 -32 -41 -43 -56 -11 -15 -46 -46 -77 -67 -56
-38 -75 -69 -43 -69 43 0 205 151 205 192 0 29 -17 29 -42 0z"/>
<path d="M4330 2158 c-6 -29 -14 -90 -17 -135 -5 -73 -4 -83 10 -83 9 0 19 10
21 23 11 57 27 228 21 237 -13 21 -24 8 -35 -42z"/>
<path d="M4091 1764 c-27 -35 -26 -45 7 -76 41 -40 112 -75 165 -83 44 -7 47
-6 57 20 5 14 10 42 10 61 l0 34 40 -20 c46 -24 73 -25 90 -5 16 19 3 37 -20
30 -11 -3 -40 5 -68 19 -59 30 -67 25 -77 -46 -7 -44 -10 -48 -35 -48 -33 0
-44 12 -58 64 -21 76 -72 99 -111 50z m68 -44 c5 -16 6 -30 2 -30 -15 0 -43
39 -36 49 11 19 23 12 34 -19z"/>
<path d="M4063 1453 c-15 -5 -17 -39 -4 -48 5 -3 12 -1 16 5 11 17 61 11 89
-11 17 -14 26 -30 26 -50 0 -33 -11 -36 -64 -14 -33 14 -40 14 -72 -1 -19 -9
-37 -20 -40 -25 -2 -5 -18 -6 -34 -2 -23 4 -30 2 -30 -10 0 -37 67 -48 96 -16
15 16 26 19 54 15 85 -15 179 -18 241 -7 87 16 115 10 269 -60 41 -19 97 -46
123 -61 56 -32 80 -36 75 -10 -4 22 -226 134 -322 163 -70 21 -93 20 -228 -7
-24 -5 -28 -2 -28 19 0 21 7 26 54 37 42 10 65 10 100 1 61 -15 76 -14 76 7 0
12 -17 22 -59 36 -55 17 -62 18 -105 3 -51 -17 -63 -15 -115 20 -32 22 -87 29
-118 16z"/>
<path d="M4036 1112 c-14 -24 40 -135 82 -169 23 -19 31 -16 44 12 10 22 16
24 46 19 20 -4 44 -7 54 -8 9 -1 27 -9 39 -20 12 -10 42 -21 68 -25 33 -6 41
-10 29 -16 -21 -9 -24 -31 -4 -38 27 -11 218 108 213 133 -3 17 -38 18 -149 5
-64 -7 -69 -7 -133 29 -56 31 -75 36 -130 36 -53 0 -68 4 -93 25 -30 25 -57
32 -66 17z"/>
</g>
</svg>
